<?xml version="1.0" standalone="no"?>
<!DOCTYPE svg PUBLIC "-//W3C//DTD SVG 20010904//EN"
 "http://www.w3.org/TR/2001/REC-SVG-20010904/DTD/svg10.dtd">
<svg version="1.0" xmlns="http://www.w3.org/2000/svg"
 width="512.000000pt" height="512.000000pt" viewBox="0 0 512.000000 512.000000"
 preserveAspectRatio="xMidYMid meet">
<metadata>
Created by potrace 1.14, written by Peter Selinger 2001-2017
</metadata>
<g transform="translate(0.000000,512.000000) scale(0.100000,-0.100000)"
fill="#000000" stroke="none">
<path d="M2567 5099 c-26 -15 -66 -101 -141 -304 -37 -99 -71 -187 -75 -195
-5 -9 -53 -25 -127 -40 -254 -55 -550 -164 -616 -228 -37 -34 -38 -83 -2 -118
32 -33 58 -29 191 30 171 76 394 146 513 161 91 11 141 27 155 49 8 12 38 80
66 151 75 190 64 185 116 59 65 -162 90 -212 110 -222 19 -10 56 -17 138 -28
28 -3 53 -8 56 -10 4 -2 24 -6 45 -10 22 -3 89 -21 150 -40 554 -167 1000
-586 1208 -1132 32 -82 71 -216 81 -277 2 -11 11 -63 20 -115 9 -52 22 -105
30 -116 9 -14 67 -43 160 -80 81 -33 148 -63 149 -69 0 -5 -65 -37 -145 -70
-80 -33 -153 -66 -161 -73 -9 -7 -19 -32 -22 -56 -22 -143 -43 -235 -83 -359
-32 -101 -48 -139 -117 -289 -15 -32 -29 -71 -32 -86 -14 -68 96 -121 142 -70
26 28 92 157 128 250 32 83 92 289 100 346 3 23 9 61 12 85 3 23 10 47 15 52
6 6 105 46 222 91 l212 81 0 89 0 89 -210 80 c-116 44 -215 83 -222 87 -6 4
-14 34 -18 65 -26 211 -134 509 -263 723 -196 326 -497 607 -832 775 -154 77
-392 162 -507 180 -21 3 -65 11 -98 18 l-60 12 -37 95 c-20 52 -53 138 -72
190 -45 119 -86 208 -102 221 -19 15 -57 19 -77 8z"/>
<path d="M596 4579 c-36 -28 -41 -64 -14 -107 66 -109 750 -1181 963 -1510 44
-67 126 -193 182 -280 321 -496 397 -608 432 -632 37 -27 256 -169 649 -422
417 -269 812 -523 837 -538 14 -8 73 -46 132 -85 428 -276 751 -479 774 -485
34 -10 61 8 78 49 14 33 13 35 -505 847 -329 516 -395 618 -564 879 -41 64
-80 123 -85 133 -6 9 -41 64 -79 122 -37 58 -103 158 -145 223 -170 262 -160
252 -326 362 -165 110 -249 164 -615 400 -135 87 -283 183 -330 214 -47 31
-93 60 -103 66 -18 10 -524 334 -677 434 -274 177 -529 335 -552 342 -20 5
-34 3 -52 -12z m464 -437 c47 -30 105 -67 130 -83 89 -57 532 -342 848 -546
178 -114 334 -215 348 -223 47 -29 429 -276 502 -325 71 -48 80 -57 178 -210
253 -394 681 -1059 772 -1200 82 -126 326 -508 352 -549 8 -13 25 -41 38 -61
15 -26 18 -36 8 -32 -22 9 -1153 730 -1841 1175 -145 94 -152 100 -208 182
-32 47 -322 495 -644 995 -322 501 -592 921 -601 934 -16 24 -16 24 8 11 14
-7 63 -38 110 -68z"/>
<path d="M2475 2869 c-184 -77 -265 -293 -174 -470 26 -51 95 -119 151 -150
37 -20 57 -23 148 -24 103 0 107 1 164 35 67 40 116 95 148 166 34 75 31 189
-7 269 -34 72 -100 140 -164 168 -69 31 -200 34 -266 6z m203 -166 c85 -40
116 -170 59 -245 -72 -94 -210 -93 -274 1 -47 70 -39 154 22 215 53 53 121 63
193 29z"/>
<path d="M2450 4249 c-30 -4 -77 -10 -105 -13 -121 -14 -356 -83 -398 -116
-14 -11 -27 -28 -29 -38 -8 -28 16 -78 45 -97 24 -16 32 -14 164 23 137 40
357 81 368 70 4 -3 8 -23 11 -44 6 -53 22 -91 42 -99 65 -26 116 -7 130 48 4
17 7 74 6 126 -2 84 -5 96 -27 118 -19 20 -35 25 -88 27 -35 1 -89 -1 -119 -5z"/>
<path d="M2880 4195 c-31 -33 -30 -83 4 -112 14 -12 52 -30 83 -39 247 -73
402 -149 567 -278 247 -194 444 -479 529 -767 23 -76 29 -99 41 -164 2 -11 9
-47 16 -80 6 -34 10 -74 8 -90 -3 -29 -4 -30 -61 -30 -70 -1 -101 -25 -101
-80 0 -64 26 -78 146 -79 139 -3 163 4 179 51 17 52 6 218 -25 368 -89 430
-358 830 -721 1075 -150 101 -294 168 -479 221 -123 36 -155 37 -186 4z"/>
<path d="M827 3560 c-24 -19 -69 -103 -102 -190 -9 -25 -21 -54 -26 -65 -35
-80 -95 -312 -114 -439 -4 -25 -12 -50 -19 -55 -6 -6 -67 -31 -135 -56 -199
-75 -345 -136 -363 -152 -25 -23 -23 -69 5 -97 13 -13 102 -54 198 -91 95 -37
203 -80 239 -95 69 -28 67 -25 84 -125 19 -103 27 -137 61 -245 138 -443 431
-829 838 -1103 93 -63 305 -167 432 -213 105 -37 323 -94 363 -94 12 0 33 -10
45 -23 12 -12 62 -122 111 -244 49 -122 97 -231 108 -242 10 -12 28 -21 39
-21 56 0 78 37 189 322 l73 186 61 16 c33 9 106 27 161 40 220 54 475 155 525
208 29 31 26 82 -6 114 -31 32 -61 28 -162 -17 -152 -69 -379 -146 -480 -164
-15 -2 -57 -9 -94 -15 -104 -16 -116 -23 -142 -82 -37 -84 -96 -235 -96 -245
0 -5 -5 -14 -12 -21 -9 -9 -25 21 -68 126 -31 75 -62 147 -69 160 -16 29 -38
38 -169 62 -151 28 -149 27 -237 54 -303 90 -569 249 -790 471 -269 269 -440
589 -510 955 -9 47 -23 117 -31 155 l-14 70 -68 32 c-37 17 -113 50 -170 73
-56 24 -101 44 -100 45 2 2 71 31 153 65 83 34 157 69 167 78 10 10 25 63 38
132 39 213 88 368 174 552 56 120 55 152 -4 183 -38 20 -52 19 -83 -5z"/>
<path d="M1079 3256 c-13 -6 -34 -29 -46 -51 -30 -51 -82 -215 -89 -280 -5
-44 -3 -53 18 -73 32 -30 92 -33 119 -6 16 17 41 90 109 315 6 21 -10 89 -22
89 -2 0 -17 4 -34 9 -21 6 -40 5 -55 -3z"/>
<path d="M953 2628 c-45 -12 -54 -42 -48 -166 4 -102 6 -123 20 -202 93 -526
441 -989 923 -1229 152 -76 346 -141 418 -141 68 0 103 91 51 136 -14 12 -85
41 -158 64 -310 98 -609 308 -782 550 -26 36 -51 70 -56 76 -13 16 -84 143
-103 184 -73 158 -101 248 -133 425 -12 65 -17 145 -9 146 5 1 33 3 63 4 66 4
95 28 95 80 0 63 -25 77 -146 79 -58 1 -118 -2 -135 -6z"/>
<path d="M4121 2271 c-11 -20 -25 -61 -60 -176 -12 -38 -25 -77 -28 -85 -9
-21 -9 -21 -17 -62 -22 -102 98 -147 147 -55 25 47 72 192 87 270 l14 67 -29
30 c-35 36 -98 43 -114 11z"/>
<path d="M2551 1173 c-30 -25 -38 -64 -35 -167 3 -99 14 -131 53 -144 101 -34
596 59 685 129 42 33 33 108 -16 132 -27 13 -37 12 -101 -5 -242 -64 -230 -61
-317 -73 -25 -3 -63 -8 -86 -11 l-40 -6 0 39 c0 22 -6 53 -13 70 -21 51 -89
69 -130 36z"/>
</g>
</svg>
